<?xml version="1.0" standalone="no"?>
<!DOCTYPE svg PUBLIC "-//W3C//DTD SVG 1.1//EN"
"http://www.w3.org/Graphics/SVG/1.1/DTD/svg11.dtd">

<svg width="536" height="518" view_box="0 0 536 518"
xmlns="http://www.w3.org/2000/svg"
xmlns:link="http://www.w3.org/1999/xlink">\n\n<desc>Généré par Mocodo 2.3.7 le Wed, 25 Sep 2019 04:26:49</desc>

<rect id="frame" x="0" y="0" width="536" height="518" fill="none" stroke="none" stroke-width="0"/>

<!-- Association set -->
<line x1="368" y1="111" x2="368" y2="289" stroke="#726f83" stroke-width="2"/>
<text x="373.0" y="187" fill="#726f83" font-family="Verdana" font-size="12">1,1</text>
<line x1="249" y1="424" x2="368" y2="289" stroke="#726f83" stroke-width="2"/>
<text x="294" y="389.179517911" fill="#726f83" font-family="Verdana" font-size="12">0,N</text>
<g id="association-set">
	<path d="M 371 264 a 14 14 90 0 1 14 14 V 289 h -34 V 278 a 14 14 90 0 1 14 -14" fill="#b2bba4" stroke="#b2bba4" stroke-width="0"/>
	<path d="M 385 289.0 v 11 a 14 14 90 0 1 -14 14 H 365 a 14 14 90 0 1 -14 -14 V 289.0 H 34" fill="#ccd6ba" stroke="#ccd6ba" stroke-width="0"/>
	<rect x="351" y="264" width="34" height="50" fill="none" rx="14" stroke="#85956b" stroke-width="2"/>
	<line x1="351" y1="289" x2="385" y2="289" stroke="#85956b" stroke-width="1"/>
	<text x="358" y="281.7" fill="#27360c" font-family="Verdana" font-size="12">set</text>
</g>

<!-- Association offer -->
<line x1="487" y1="289" x2="368" y2="424" stroke="#726f83" stroke-width="2"/>
<text x="420" y="332.820482089" fill="#726f83" font-family="Verdana" font-size="12">0,N</text>
<line x1="249" y1="424" x2="368" y2="424" stroke="#726f83" stroke-width="2"/>
<text x="294" y="441.0" fill="#726f83" font-family="Verdana" font-size="12">1,N</text>
<g id="association-offer">
	<path d="M 376 399 a 14 14 90 0 1 14 14 V 424 h -44 V 413 a 14 14 90 0 1 14 -14" fill="#b2bba4" stroke="#b2bba4" stroke-width="0"/>
	<path d="M 390 424.0 v 11 a 14 14 90 0 1 -14 14 H 360 a 14 14 90 0 1 -14 -14 V 424.0 H 44" fill="#ccd6ba" stroke="#ccd6ba" stroke-width="0"/>
	<rect x="346" y="399" width="44" height="50" fill="none" rx="14" stroke="#85956b" stroke-width="2"/>
	<line x1="346" y1="424" x2="390" y2="424" stroke="#85956b" stroke-width="1"/>
	<text x="353" y="416.7" fill="#27360c" font-family="Verdana" font-size="12">offer</text>
</g>

<!-- Association is -->
<line x1="147" y1="111" x2="249" y2="289" stroke="#726f83" stroke-width="2"/>
<text x="192" y="177.255440373" fill="#726f83" font-family="Verdana" font-size="12">0,1</text>
<line x1="249" y1="424" x2="249" y2="289" stroke="#726f83" stroke-width="2"/>
<text x="254.0" y="331" fill="#726f83" font-family="Verdana" font-size="12">1,1</text>
<g id="association-is">
	<path d="M 248 264 a 14 14 90 0 1 14 14 V 289 h -26 V 278 a 14 14 90 0 1 14 -14" fill="#b2bba4" stroke="#b2bba4" stroke-width="0"/>
	<path d="M 262 289.0 v 11 a 14 14 90 0 1 -14 14 H 250 a 14 14 90 0 1 -14 -14 V 289.0 H 26" fill="#ccd6ba" stroke="#ccd6ba" stroke-width="0"/>
	<rect x="236" y="264" width="26" height="50" fill="none" rx="14" stroke="#85956b" stroke-width="2"/>
	<line x1="236" y1="289" x2="262" y2="289" stroke="#85956b" stroke-width="1"/>
	<text x="243" y="281.7" fill="#27360c" font-family="Verdana" font-size="12">is</text>
</g>

<!-- Association dispose -->
<line x1="47" y1="289" x2="147" y2="289" stroke="#726f83" stroke-width="2"/>
<text x="90" y="306.0" fill="#726f83" font-family="Verdana" font-size="12">1,1</text>
<line x1="249" y1="424" x2="147" y2="289" stroke="#726f83" stroke-width="2"/>
<text x="182" y="382.366910603" fill="#726f83" font-family="Verdana" font-size="12">0,N</text>
<g id="association-dispose">
	<path d="M 163 264 a 14 14 90 0 1 14 14 V 289 h -60 V 278 a 14 14 90 0 1 14 -14" fill="#b2bba4" stroke="#b2bba4" stroke-width="0"/>
	<path d="M 177 289.0 v 11 a 14 14 90 0 1 -14 14 H 131 a 14 14 90 0 1 -14 -14 V 289.0 H 60" fill="#ccd6ba" stroke="#ccd6ba" stroke-width="0"/>
	<rect x="117" y="264" width="60" height="50" fill="none" rx="14" stroke="#85956b" stroke-width="2"/>
	<line x1="117" y1="289" x2="177" y2="289" stroke="#85956b" stroke-width="1"/>
	<text x="124" y="281.7" fill="#27360c" font-family="Verdana" font-size="12">dispose</text>
</g>

<!-- Association write -->
<line x1="47" y1="289" x2="47" y2="111" stroke="#726f83" stroke-width="2"/>
<text x="52.0" y="230" fill="#726f83" font-family="Verdana" font-size="12">1,1</text>
<line x1="147" y1="111" x2="47" y2="111" stroke="#726f83" stroke-width="2"/>
<text x="80" y="128.0" fill="#726f83" font-family="Verdana" font-size="12">0,N</text>
<g id="association-write">
	<path d="M 56 86 a 14 14 90 0 1 14 14 V 111 h -46 V 100 a 14 14 90 0 1 14 -14" fill="#b2bba4" stroke="#b2bba4" stroke-width="0"/>
	<path d="M 70 111.0 v 11 a 14 14 90 0 1 -14 14 H 38 a 14 14 90 0 1 -14 -14 V 111.0 H 46" fill="#ccd6ba" stroke="#ccd6ba" stroke-width="0"/>
	<rect x="24" y="86" width="46" height="50" fill="none" rx="14" stroke="#85956b" stroke-width="2"/>
	<line x1="24" y1="111" x2="70" y2="111" stroke="#85956b" stroke-width="1"/>
	<text x="31" y="103.7" fill="#27360c" font-family="Verdana" font-size="12">write</text>
</g>

<!-- Association contain -->
<line x1="368" y1="111" x2="487" y2="111" stroke="#726f83" stroke-width="2"/>
<text x="430" y="128.0" fill="#726f83" font-family="Verdana" font-size="12">0,1</text>
<line x1="487" y1="289" x2="487" y2="111" stroke="#726f83" stroke-width="2"/>
<text x="492.0" y="230" fill="#726f83" font-family="Verdana" font-size="12">0,N</text>
<g id="association-contain">
	<path d="M 503 86 a 14 14 90 0 1 14 14 V 111 h -60 V 100 a 14 14 90 0 1 14 -14" fill="#b2bba4" stroke="#b2bba4" stroke-width="0"/>
	<path d="M 517 111.0 v 11 a 14 14 90 0 1 -14 14 H 471 a 14 14 90 0 1 -14 -14 V 111.0 H 60" fill="#ccd6ba" stroke="#ccd6ba" stroke-width="0"/>
	<rect x="457" y="86" width="60" height="50" fill="none" rx="14" stroke="#85956b" stroke-width="2"/>
	<line x1="457" y1="111" x2="517" y2="111" stroke="#85956b" stroke-width="1"/>
	<text x="464" y="103.7" fill="#27360c" font-family="Verdana" font-size="12">contain</text>
</g>

<!-- Association has -->
<line x1="249" y1="424" x2="147" y2="424" stroke="#726f83" stroke-width="2"/>
<text x="182" y="441.0" fill="#726f83" font-family="Verdana" font-size="12">0,N</text>
<line x1="47" y1="424" x2="147" y2="424" stroke="#726f83" stroke-width="2"/>
<text x="78" y="441.0" fill="#726f83" font-family="Verdana" font-size="12">1,1</text>
<g id="association-has">
	<path d="M 151 399 a 14 14 90 0 1 14 14 V 424 h -36 V 413 a 14 14 90 0 1 14 -14" fill="#b2bba4" stroke="#b2bba4" stroke-width="0"/>
	<path d="M 165 424.0 v 11 a 14 14 90 0 1 -14 14 H 143 a 14 14 90 0 1 -14 -14 V 424.0 H 36" fill="#ccd6ba" stroke="#ccd6ba" stroke-width="0"/>
	<rect x="129" y="399" width="36" height="50" fill="none" rx="14" stroke="#85956b" stroke-width="2"/>
	<line x1="129" y1="424" x2="165" y2="424" stroke="#85956b" stroke-width="1"/>
	<text x="136" y="416.7" fill="#27360c" font-family="Verdana" font-size="12">has</text>
</g>

<!-- Association reserve -->
<line x1="368" y1="111" x2="249" y2="111" stroke="#726f83" stroke-width="2"/>
<text x="285" y="128.0" fill="#726f83" font-family="Verdana" font-size="12">0,1</text>
<line x1="147" y1="111" x2="249" y2="111" stroke="#726f83" stroke-width="2"/>
<text x="192" y="103.0" fill="#726f83" font-family="Verdana" font-size="12">0,N</text>
<g id="association-reserve">
	<path d="M 265 86 a 14 14 90 0 1 14 14 V 111 h -60 V 100 a 14 14 90 0 1 14 -14" fill="#b2bba4" stroke="#b2bba4" stroke-width="0"/>
	<path d="M 279 111.0 v 11 a 14 14 90 0 1 -14 14 H 233 a 14 14 90 0 1 -14 -14 V 111.0 H 60" fill="#ccd6ba" stroke="#ccd6ba" stroke-width="0"/>
	<rect x="219" y="86" width="60" height="50" fill="none" rx="14" stroke="#85956b" stroke-width="2"/>
	<line x1="219" y1="111" x2="279" y2="111" stroke="#85956b" stroke-width="1"/>
	<text x="226" y="103.7" fill="#27360c" font-family="Verdana" font-size="12">reserve</text>
</g>

<!-- Entity COMMENT -->
<g id="entity-COMMENT">
	<g id="frame-COMMENT">
		<rect x="9" y="238" width="76" height="25" fill="#97b8ff" stroke="#97b8ff" stroke-width="0"/>
		<rect x="9" y="263.0" width="76" height="77" fill="#c0d4ff" stroke="#c0d4ff" stroke-width="0"/>
		<rect x="9" y="238" width="76" height="102" fill="none" stroke="#578dff" stroke-width="2"/>
		<line x1="9" y1="263" x2="85" y2="263" stroke="#578dff" stroke-width="1"/>
	</g>
	<text x="15" y="255.7" fill="#131114" font-family="Verdana" font-size="12">COMMENT</text>
	<text x="14" y="280.7" fill="#3e3c42" font-family="Verdana" font-size="12">content</text>
	<line x1="14" y1="283" x2="60" y2="283" stroke="#3e3c42" stroke-width="1"/>
	<text x="14" y="297.8" fill="#3e3c42" font-family="Verdana" font-size="12">rate</text>
	<text x="14" y="314.8" fill="#3e3c42" font-family="Verdana" font-size="12">created_at</text>
	<text x="14" y="331.8" fill="#3e3c42" font-family="Verdana" font-size="12">enable</text>
</g>

<!-- Entity SERVICE -->
<g id="entity-SERVICE">
	<g id="frame-SERVICE">
		<rect x="447" y="238" width="80" height="25" fill="#97b8ff" stroke="#97b8ff" stroke-width="0"/>
		<rect x="447" y="263.0" width="80" height="77" fill="#c0d4ff" stroke="#c0d4ff" stroke-width="0"/>
		<rect x="447" y="238" width="80" height="102" fill="none" stroke="#578dff" stroke-width="2"/>
		<line x1="447" y1="263" x2="527" y2="263" stroke="#578dff" stroke-width="1"/>
	</g>
	<text x="460" y="255.7" fill="#131114" font-family="Verdana" font-size="12">SERVICE</text>
	<text x="452" y="280.7" fill="#3e3c42" font-family="Verdana" font-size="12">name</text>
	<line x1="452" y1="283" x2="487" y2="283" stroke="#3e3c42" stroke-width="1"/>
	<text x="452" y="297.8" fill="#3e3c42" font-family="Verdana" font-size="12">price</text>
	<text x="452" y="314.8" fill="#3e3c42" font-family="Verdana" font-size="12">created_at</text>
	<text x="452" y="331.8" fill="#3e3c42" font-family="Verdana" font-size="12">updated_at</text>
</g>

<!-- Entity IMAGE -->
<g id="entity-IMAGE">
	<g id="frame-IMAGE">
		<rect x="21" y="399" width="52" height="25" fill="#97b8ff" stroke="#97b8ff" stroke-width="0"/>
		<rect x="21" y="424.0" width="52" height="25" fill="#c0d4ff" stroke="#c0d4ff" stroke-width="0"/>
		<rect x="21" y="399" width="52" height="50" fill="none" stroke="#578dff" stroke-width="2"/>
		<line x1="21" y1="424" x2="73" y2="424" stroke="#578dff" stroke-width="1"/>
	</g>
	<text x="26" y="416.7" fill="#131114" font-family="Verdana" font-size="12">IMAGE</text>
	<text x="26" y="441.8" fill="#3e3c42" font-family="Verdana" font-size="12">url</text>
	<line x1="26" y1="444" x2="43" y2="444" stroke="#3e3c42" stroke-width="1"/>
</g>

<!-- Entity VISIT -->
<g id="entity-VISIT">
	<g id="frame-VISIT">
		<rect x="311" y="52" width="114" height="25" fill="#97b8ff" stroke="#97b8ff" stroke-width="0"/>
		<rect x="311" y="77.0" width="114" height="93" fill="#c0d4ff" stroke="#c0d4ff" stroke-width="0"/>
		<rect x="311" y="52" width="114" height="118" fill="none" stroke="#578dff" stroke-width="2"/>
		<line x1="311" y1="77" x2="425" y2="77" stroke="#578dff" stroke-width="1"/>
	</g>
	<text x="350" y="69.7" fill="#131114" font-family="Verdana" font-size="12">VISIT</text>
	<text x="316" y="94.7" fill="#3e3c42" font-family="Verdana" font-size="12">date</text>
	<line x1="316" y1="97" x2="344" y2="97" stroke="#3e3c42" stroke-width="1"/>
	<text x="316" y="111.8" fill="#3e3c42" font-family="Verdana" font-size="12">time</text>
	<text x="316" y="128.8" fill="#3e3c42" font-family="Verdana" font-size="12">reservation_date</text>
	<text x="316" y="145.8" fill="#3e3c42" font-family="Verdana" font-size="12">created_at</text>
	<text x="316" y="162.8" fill="#3e3c42" font-family="Verdana" font-size="12">updated_at</text>
</g>

<!-- Entity GARAGE -->
<g id="entity-GARAGE">
	<g id="frame-GARAGE">
		<rect x="209" y="339" width="80" height="25" fill="#97b8ff" stroke="#97b8ff" stroke-width="0"/>
		<rect x="209" y="364.0" width="80" height="145" fill="#c0d4ff" stroke="#c0d4ff" stroke-width="0"/>
		<rect x="209" y="339" width="80" height="170" fill="none" stroke="#578dff" stroke-width="2"/>
		<line x1="209" y1="364" x2="289" y2="364" stroke="#578dff" stroke-width="1"/>
	</g>
	<text x="223" y="356.7" fill="#131114" font-family="Verdana" font-size="12">GARAGE</text>
	<text x="214" y="381.7" fill="#3e3c42" font-family="Verdana" font-size="12">name</text>
	<line x1="214" y1="384" x2="249" y2="384" stroke="#3e3c42" stroke-width="1"/>
	<text x="214" y="398.7" fill="#3e3c42" font-family="Verdana" font-size="12">adress</text>
	<text x="214" y="415.7" fill="#3e3c42" font-family="Verdana" font-size="12">phone</text>
	<text x="214" y="432.8" fill="#3e3c42" font-family="Verdana" font-size="12">email</text>
	<text x="214" y="449.8" fill="#3e3c42" font-family="Verdana" font-size="12">created_at</text>
	<text x="214" y="466.8" fill="#3e3c42" font-family="Verdana" font-size="12">updated_at</text>
	<text x="214" y="483.8" fill="#3e3c42" font-family="Verdana" font-size="12">mobility</text>
	<text x="214" y="500.8" fill="#3e3c42" font-family="Verdana" font-size="12">distance</text>
</g>

<!-- Entity USER -->
<g id="entity-USER">
	<g id="frame-USER">
		<rect x="107" y="9" width="80" height="25" fill="#97b8ff" stroke="#97b8ff" stroke-width="0"/>
		<rect x="107" y="34.0" width="80" height="179" fill="#c0d4ff" stroke="#c0d4ff" stroke-width="0"/>
		<rect x="107" y="9" width="80" height="204" fill="none" stroke="#578dff" stroke-width="2"/>
		<line x1="107" y1="34" x2="187" y2="34" stroke="#578dff" stroke-width="1"/>
	</g>
	<text x="130" y="26.7" fill="#131114" font-family="Verdana" font-size="12">USER</text>
	<text x="112" y="51.7" fill="#3e3c42" font-family="Verdana" font-size="12">username</text>
	<line x1="112" y1="54" x2="173" y2="54" stroke="#3e3c42" stroke-width="1"/>
	<text x="112" y="68.7" fill="#3e3c42" font-family="Verdana" font-size="12">firstname</text>
	<text x="112" y="85.7" fill="#3e3c42" font-family="Verdana" font-size="12">lastname</text>
	<text x="112" y="102.7" fill="#3e3c42" font-family="Verdana" font-size="12">phone</text>
	<text x="112" y="119.8" fill="#3e3c42" font-family="Verdana" font-size="12">adress</text>
	<text x="112" y="136.8" fill="#3e3c42" font-family="Verdana" font-size="12">avatar</text>
	<text x="112" y="153.8" fill="#3e3c42" font-family="Verdana" font-size="12">email</text>
	<text x="112" y="170.8" fill="#3e3c42" font-family="Verdana" font-size="12">role</text>
	<text x="112" y="187.8" fill="#3e3c42" font-family="Verdana" font-size="12">created_at</text>
	<text x="112" y="204.8" fill="#3e3c42" font-family="Verdana" font-size="12">updated_at</text>
</g>
</svg>